<svg width="173" height="20" viewBox="0 0 173 20" fill="none" xmlns="http://www.w3.org/2000/svg">
<path d="M66.2698 15.1268H58.841L57.083 19.7183H53L60.769 0H62.527C63.7557 0 64.5874 0.56338 65.0222 1.69014L72.0824 19.7183H67.9994L66.2698 15.1268ZM59.8901 11.8592H65.2207L62.5837 4.76056H62.5554L59.8901 11.8592Z" fill="#F2F1EF"/>
<path d="M73.8308 5.66197H77.4034V7.46479C77.7626 6.92019 78.273 6.47887 78.9346 6.14085C79.6151 5.78404 80.3239 5.60563 81.0611 5.60563H82.9892V8.92958H81.0611C80.0593 8.92958 79.2465 9.23005 78.6227 9.83099C77.9989 10.4319 77.687 11.2019 77.687 12.1408V19.7183H73.8308V5.66197Z" fill="#F2F1EF"/>
<path d="M90.8663 19.7183C89.2029 19.7183 87.9837 19.3427 87.2087 18.5915C86.4336 17.8404 86.0461 16.6761 86.0461 15.0986V8.92958H83.551V5.66197H86.1596V1.40845H89.9023V5.66197H93.5883V8.92958H89.9023V14.9296C89.9023 15.4554 89.9968 15.8404 90.1858 16.0845C90.3938 16.3286 90.7151 16.4507 91.1499 16.4507H93.5883V19.7183H90.8663Z" fill="#F2F1EF"/>
<path d="M96.3148 0H100.171V7.07042C100.587 6.58216 101.097 6.18779 101.702 5.88732C102.326 5.58685 102.921 5.43662 103.488 5.43662H105.246C106.759 5.43662 107.968 5.9061 108.876 6.84507C109.802 7.78404 110.265 9.02348 110.265 10.5634V19.7183H106.409V10.7042C106.409 10.1221 106.248 9.65258 105.927 9.29578C105.624 8.93897 105.227 8.76056 104.736 8.76056H102.978C102.316 8.76056 101.721 9.00469 101.192 9.49296C100.681 9.96244 100.341 10.5822 100.171 11.3521V19.7183H96.3148V0Z" fill="#F2F1EF"/>
<path d="M118.163 19.9437C116.67 19.9437 115.47 19.446 114.562 18.4507C113.655 17.4366 113.201 16.1127 113.201 14.4789V5.66197H117.058V14.5352C117.058 15.1549 117.209 15.662 117.511 16.0563C117.833 16.4319 118.249 16.6197 118.759 16.6197H120.403C121.027 16.6197 121.594 16.3662 122.105 15.8592C122.615 15.3333 122.974 14.6479 123.182 13.8028V5.66197H127.038V19.7183H123.466V17.9155C123.031 18.5164 122.492 19.0047 121.849 19.3803C121.226 19.7559 120.621 19.9437 120.035 19.9437H118.163Z" fill="#F2F1EF"/>
<path d="M130.318 5.66197H133.89V7.46479C134.249 6.92019 134.76 6.47887 135.421 6.14085C136.102 5.78404 136.811 5.60563 137.548 5.60563H139.476V8.92958H137.548C136.546 8.92958 135.733 9.23005 135.11 9.83099C134.486 10.4319 134.174 11.2019 134.174 12.1408V19.7183H130.318V5.66197Z" fill="#F2F1EF"/>
<path d="M152.204 19.7183C151.391 19.7183 150.73 19.4742 150.219 18.9859C149.709 18.4977 149.454 17.8592 149.454 17.0704V0H159.321C161.117 0 162.553 0.422535 163.631 1.26761C164.727 2.11268 165.275 3.24883 165.275 4.67606V6.08451C165.275 6.70423 165.115 7.29577 164.793 7.85915C164.491 8.42253 164.056 8.88263 163.489 9.23944V9.26761C164.396 9.58685 165.124 10.1033 165.672 10.8169C166.24 11.5305 166.523 12.3286 166.523 13.2113V14.6761C166.523 16.216 165.956 17.446 164.822 18.3662C163.707 19.2676 162.194 19.7183 160.285 19.7183H152.204ZM159.321 8.16901C159.926 8.16901 160.417 7.98122 160.796 7.60563C161.174 7.21127 161.363 6.69484 161.363 6.05634V5.09859C161.363 4.57277 161.164 4.15962 160.767 3.85916C160.37 3.53991 159.841 3.38028 159.179 3.38028H153.367V8.16901H159.321ZM160.002 16.338C160.833 16.338 161.476 16.1784 161.93 15.8592C162.383 15.5211 162.61 15.0516 162.61 14.4507V13.2113C162.61 12.6667 162.412 12.2254 162.015 11.8873C161.618 11.5493 161.089 11.3803 160.427 11.3803H153.367V16.338H160.002Z" fill="#F2F1EF"/>
<path d="M170.675 20C169.976 20 169.408 19.7934 168.974 19.3803C168.558 18.9484 168.35 18.385 168.35 17.6901C168.35 16.9953 168.558 16.4413 168.974 16.0282C169.408 15.5962 169.976 15.3803 170.675 15.3803C171.374 15.3803 171.932 15.5962 172.348 16.0282C172.783 16.4413 173 16.9953 173 17.6901C173 18.385 172.783 18.9484 172.348 19.3803C171.932 19.7934 171.374 20 170.675 20Z" fill="#F3B765"/>
<path d="M23.4232 0.0734577C22.3591 -0.222129 21.2567 0.40091 20.961 1.46513L16.5167 17.4644C16.2211 18.5286 16.8441 19.631 17.9084 19.9265C18.0874 19.9763 18.2675 20 18.4447 20C19.3207 20 20.1247 19.42 20.3705 18.5349L24.8148 2.53561C25.1104 1.47153 24.4874 0.369044 23.4232 0.0734577Z" fill="#F3B765"/>
<path d="M9.94501 0.46273C9.09571 -0.243637 7.8347 -0.127643 7.1286 0.721651L0.462246 8.73835C-0.155058 9.48071 -0.153992 10.558 0.464913 11.299L7.13127 19.2816C7.52685 19.7553 8.09509 19.9997 8.66733 19.9997C9.11944 19.9997 9.57409 19.8472 9.9482 19.5348C10.796 18.8268 10.9094 17.5655 10.2014 16.7178L4.60339 10.0146L10.2041 3.27927C10.9102 2.42984 10.7942 1.16883 9.94501 0.46273Z" fill="#F3B765"/>
<path d="M40.8665 8.70105L34.2001 0.718626C33.4922 -0.129201 32.2309 -0.242396 31.3832 0.465571C30.5354 1.17354 30.4222 2.43481 31.1302 3.28251L36.7282 9.9858L31.1275 16.7211C30.4213 17.5704 30.5372 18.8314 31.3864 19.5375C31.76 19.8483 32.2133 19.9997 32.6641 19.9997C33.2378 19.9997 33.8074 19.7541 34.2028 19.2784L40.8692 11.2617C41.4865 10.5192 41.4854 9.44195 40.8665 8.70105Z" fill="#F3B765"/>
</svg>
