<svg width="36" height="30" viewBox="0 0 36 30" fill="none" xmlns="http://www.w3.org/2000/svg">
<path d="M34.7543 0.325875C34.4968 0.0489017 34.1071 -0.063083 33.7418 0.0348711L1.7295 8.61248C1.34444 8.71563 1.05448 9.0334 0.986922 9.42626C0.919368 9.81885 1.08644 10.2151 1.41459 10.4411L12.0274 17.7438V28.9784C12.0274 29.3917 12.2763 29.7643 12.658 29.9223C12.7845 29.9748 12.9173 30 13.0488 30C13.3149 30 13.5762 29.8963 13.7716 29.7007L20.1438 23.3285L24.8495 26.5664C25.0218 26.6851 25.2242 26.7465 25.4287 26.7465C25.5355 26.7465 25.643 26.7298 25.747 26.6955C26.0499 26.5963 26.2892 26.3611 26.3937 26.06L34.9713 1.35686C35.0955 0.999602 35.0118 0.602849 34.7543 0.325875ZM29.3494 3.32738L13.0142 15.9427L4.39739 10.0132L29.3494 3.32738ZM14.0707 26.5118V19.1497L18.4319 22.1507L14.0707 26.5118ZM24.9031 24.1233L14.7821 17.1589L31.916 3.92705L24.9031 24.1233Z" fill="#F3B765"/>
</svg>
