<svg width="31" height="24" viewBox="0 0 31 24" fill="none" xmlns="http://www.w3.org/2000/svg">
<path d="M25.8366 23.4634H5.16344C3.7948 23.4609 2.48294 22.9161 1.51516 21.9483C0.547386 20.9805 0.00256061 19.6687 0 18.3L0 5.9097C-2.40275e-06 4.53938 0.543692 3.22504 1.51175 2.25517C2.4798 1.28529 3.79312 0.739138 5.16344 0.736572H25.8366C27.2069 0.739138 28.5202 1.28529 29.4883 2.25517C30.4563 3.22504 31 4.53938 31 5.9097V18.3C30.9974 19.6687 30.4526 20.9805 29.4848 21.9483C28.5171 22.9161 27.2052 23.4609 25.8366 23.4634ZM5.16344 2.8097C4.34127 2.8097 3.55277 3.1363 2.97141 3.71767C2.39004 4.29903 2.06344 5.08753 2.06344 5.9097V18.3C2.06344 19.1222 2.39004 19.9107 2.97141 20.492C3.55277 21.0734 4.34127 21.4 5.16344 21.4H25.8366C26.6587 21.4 27.4472 21.0734 28.0286 20.492C28.61 19.9107 28.9366 19.1222 28.9366 18.3V5.9097C28.9366 5.08753 28.61 4.29903 28.0286 3.71767C27.4472 3.1363 26.6587 2.8097 25.8366 2.8097H5.16344Z" fill="#F3B765"/>
</svg>
