<svg width="35" height="30" viewBox="0 0 35 30" fill="black" xmlns="http://www.w3.org/2000/svg">
<path d="M32.2879 0H2.40296C1.07803 0 0 1.07803 0 2.40296V22.6781C0 24.003 1.07803 25.0811 2.40296 25.0811H19.8293L19.3031 28.2901C19.2041 28.8941 19.4039 29.4413 19.8377 29.7535C20.2713 30.0658 20.8533 30.0825 21.395 29.7971L25.1547 27.8181C25.2596 27.7643 25.5486 27.7643 25.6535 27.8181L29.4133 29.7971C29.6705 29.9324 29.9368 29.9999 30.1921 29.9999C30.4744 29.9999 30.743 29.9173 30.9707 29.7534C31.4043 29.4411 31.6041 28.8938 31.5052 28.2898L30.9792 25.0809H32.288C33.613 25.0809 34.691 24.0029 34.691 22.678V2.40296C34.6908 1.0779 33.6128 0 32.2879 0ZM25.4042 20.9623C23.095 20.9623 21.2162 19.0834 21.2162 16.7743C21.2162 14.4651 23.095 12.5863 25.4042 12.5863C27.7134 12.5863 29.5922 14.4651 29.5922 16.7743C29.5922 19.0834 27.7134 20.9623 25.4042 20.9623ZM26.6129 25.9956C25.9125 25.6268 24.8957 25.6268 24.1954 25.9956L21.5373 27.3946L22.3824 22.2401C23.2786 22.7376 24.3087 23.0218 25.4043 23.0218C26.4999 23.0218 27.5299 22.7374 28.4263 22.2401L28.7556 24.2497C28.7564 24.253 28.7566 24.2565 28.7573 24.2598L29.2713 27.3948L26.6129 25.9956ZM32.6312 22.6781C32.6312 22.8642 32.474 23.0214 32.2879 23.0214H30.6414L30.2653 20.7271C30.2638 20.718 30.2613 20.7094 30.2595 20.7003C31.1294 19.6268 31.652 18.2605 31.652 16.7743C31.652 13.3293 28.8493 10.5266 25.4043 10.5266C21.9593 10.5266 19.1566 13.3293 19.1566 16.7743C19.1566 18.2605 19.6792 19.6265 20.5491 20.7003C20.5473 20.7092 20.5449 20.718 20.5433 20.7269L20.167 23.0232C20.1554 23.0228 20.1443 23.0214 20.1328 23.0214H2.40296C2.2169 23.0214 2.05968 22.8642 2.05968 22.6781V2.40296C2.05968 2.2169 2.2169 2.05968 2.40296 2.05968H32.2879C32.474 2.05968 32.6312 2.2169 32.6312 2.40296V22.6781Z" fill="#F3B765"/>
</svg>
