<svg width="21" height="20" viewBox="0 0 21 20" fill="none" xmlns="http://www.w3.org/2000/svg">
<path d="M10.5728 0.00951385C10.5463 0.00856781 10.5199 0.00738525 10.4931 0.00738525C10.4839 0.00738525 10.4747 0.00785829 10.4655 0.00809479C10.4463 0.00785829 10.4274 0.00738525 10.4082 0.00738525C4.902 0.00738525 0.422241 4.48691 0.422241 9.99313C0.422241 15.4993 4.902 19.9791 10.4082 19.9791C10.4274 19.9791 10.4463 19.9786 10.4655 19.9784C10.4747 19.9786 10.4839 19.9791 10.4931 19.9791C10.5199 19.9791 10.5463 19.9779 10.5728 19.977C16.0034 19.8888 20.394 15.4445 20.394 9.99313C20.394 4.54202 16.0034 0.0977325 10.5728 0.00951385ZM17.7256 6.36197H14.7435C14.5524 5.21134 14.2693 4.15083 13.9039 3.23695C13.7922 2.95786 13.6735 2.69604 13.5489 2.45102C15.3657 3.21046 16.8517 4.608 17.7256 6.36197ZM18.5785 9.99313C18.5785 10.617 18.5078 11.2246 18.3749 11.8088H14.9622C15.0084 11.2159 15.0322 10.6088 15.0322 9.99313C15.0322 9.37772 15.0084 8.7706 14.9622 8.17767H18.3749C18.5078 8.76185 18.5785 9.36945 18.5785 9.99313ZM10.5251 18.162C10.5083 18.1622 10.4917 18.1625 10.4752 18.1627C9.9378 18.1447 9.27013 17.3297 8.76849 16.0752C8.48089 15.3565 8.25147 14.5152 8.08521 13.6125H12.9013C12.735 14.5152 12.5056 15.3565 12.218 16.0752C11.7204 17.3193 11.0598 18.131 10.5251 18.162ZM7.84562 11.8088C7.79595 11.2194 7.7697 10.6121 7.7697 9.99313C7.7697 9.37441 7.79595 8.76705 7.84562 8.17767H13.1409C13.1905 8.76705 13.2166 9.37441 13.2166 9.99313C13.2166 10.6121 13.1905 11.2194 13.1409 11.8088H7.84562ZM2.23794 9.99313C2.23794 9.36945 2.30842 8.74955 2.44157 8.1656H6.02448C5.97836 8.75854 5.95424 9.37772 5.95424 9.99313C5.95424 10.6088 5.97836 11.2159 6.02448 11.8088H2.44157C2.30842 11.2246 2.23794 10.617 2.23794 9.99313ZM10.4752 1.82379C10.4917 1.82403 10.5083 1.82426 10.5251 1.8245C11.0598 1.85548 11.7204 2.66719 12.218 3.91124C12.5056 4.63 12.735 5.45921 12.9013 6.36197H8.08521C8.25147 5.45921 8.48089 4.63 8.76849 3.91124C9.27013 2.65678 9.9378 1.84177 10.4752 1.82379ZM7.48186 2.36517C7.3409 2.63455 7.20751 2.92499 7.08263 3.23695C6.71722 4.15083 6.43436 5.21134 6.24302 6.36197H3.0908C3.99876 4.53965 5.56754 3.10213 7.48186 2.36517ZM3.09056 13.6245H6.24302C6.43412 14.7751 6.71722 15.8357 7.08263 16.7495C7.20751 17.0615 7.3409 17.3519 7.48186 17.6213C5.56754 16.8844 3.99876 15.4471 3.09056 13.6245ZM13.5489 17.5355C13.6735 17.2904 13.7922 17.0286 13.9039 16.7495C14.2693 15.8357 14.5521 14.7631 14.7435 13.6125H17.7256C16.8517 15.3664 15.3657 16.776 13.5489 17.5355Z" fill="#F3B765"/>
</svg>
