<svg width="31" height="32" viewBox="0 0 31 32" fill="none" xmlns="http://www.w3.org/2000/svg">
<path d="M30.0939 7.4566C29.4669 5.9694 28.5306 4.63264 27.3472 3.53512C26.1638 2.43761 24.7604 1.60445 23.2303 1.09101C21.7002 0.57756 20.0783 0.395578 18.4724 0.557146C16.8666 0.718715 15.3135 1.22014 13.9163 2.0281C12.5191 2.83607 11.3098 3.93208 10.3688 5.24334C9.42776 6.5546 8.77652 8.05108 8.45832 9.63339C8.14013 11.2157 8.16226 12.8476 8.52325 14.4207C8.88424 15.9938 9.57582 17.472 10.5521 18.7573L0.457617 28.8517C0.312949 28.9954 0.198057 29.1662 0.11953 29.3543C0.0410022 29.5424 0.000383578 29.7442 2.70364e-06 29.9481C-0.000378171 30.1519 0.0394861 30.3539 0.11731 30.5423C0.195134 30.7307 0.309387 30.9019 0.453517 31.0461C0.597647 31.1903 0.76882 31.3046 0.95722 31.3825C1.14562 31.4604 1.34754 31.5003 1.55141 31.5C1.75527 31.4997 1.95707 31.4591 2.14523 31.3807C2.33339 31.3022 2.50421 31.1874 2.64789 31.0427L12.7423 20.9483C14.7391 22.4601 17.1789 23.2707 19.6833 23.2546C22.1877 23.2385 24.6169 22.3965 26.594 20.8592C28.5712 19.3218 29.9858 17.1751 30.6186 14.7519C31.2514 12.3286 31.0669 9.76433 30.0939 7.4566ZM19.616 20.1596C17.9786 20.1596 16.3779 19.6741 15.0165 18.7644C13.655 17.8547 12.5939 16.5617 11.9673 15.0489C11.3407 13.5362 11.1767 11.8715 11.4962 10.2656C11.8156 8.65965 12.6041 7.18449 13.7619 6.02667C14.9198 4.86884 16.3949 4.08035 18.0009 3.76091C19.6068 3.44147 21.2714 3.60542 22.7842 4.23203C24.297 4.85864 25.59 5.91976 26.4996 7.28122C27.4093 8.64268 27.8949 10.2433 27.8949 11.8807C27.8935 14.076 27.0209 16.181 25.4686 17.7333C23.9163 19.2856 21.8113 20.1583 19.616 20.1596Z" fill="#F3B765"/>
</svg>
