<svg width="21" height="22" viewBox="0 0 21 22" fill="none" xmlns="http://www.w3.org/2000/svg">
<path d="M20.4284 15.9119L17.4978 12.9813C16.4512 11.9346 14.6719 12.3533 14.2532 13.7139C13.9392 14.6559 12.8926 15.1793 11.9506 14.9699C9.85728 14.4466 7.03133 11.7253 6.50801 9.52733C6.19402 8.58531 6.822 7.53866 7.76399 7.22471C9.12463 6.80605 9.54329 5.02675 8.49664 3.9801L5.56603 1.04949C4.72871 0.316837 3.47273 0.316837 2.74008 1.04949L0.75145 3.03812C-1.23718 5.13141 0.960779 10.6786 5.88002 15.5979C10.7993 20.5171 16.3465 22.8198 18.4398 20.7265L20.4284 18.7378C21.1611 17.9005 21.1611 16.6445 20.4284 15.9119Z" fill="white"/>
</svg>
